<svg xmlns="http://www.w3.org/2000/svg" viewBox="0 0 480 320" width="480" height="320" role="img" aria-label="Backdrops">
  <defs>
    <linearGradient id="bg" x1="0" y1="0" x2="0" y2="1">
      <stop offset="0" stop-color="#0a1f1b"/><stop offset="1" stop-color="#02100e"/>
    </linearGradient>
    <radialGradient id="glow" cx="50%" cy="38%" r="60%">
      <stop offset="0" stop-color="#d9aa46" stop-opacity="0.22"/><stop offset="1" stop-color="#d9aa46" stop-opacity="0"/>
    </radialGradient>
    <linearGradient id="gold" x1="0" y1="0" x2="0" y2="1">
      <stop offset="0" stop-color="#f8d78b"/><stop offset="1" stop-color="#d9aa46"/>
    </linearGradient>
  </defs>
  <rect width="480" height="320" fill="url(#bg)"/>
  <rect width="480" height="320" fill="url(#glow)"/>
  <rect x="6" y="6" width="468" height="308" rx="10" fill="none" stroke="#d9aa46" stroke-opacity="0.35"/>
  <rect x="110" y="70" width="260" height="150" rx="8" fill="none" stroke="url(#gold)" stroke-width="5"/><rect x="122" y="82" width="30" height="126" rx="4" fill="#d9aa46" opacity="0.15"/><rect x="162" y="82" width="30" height="126" rx="4" fill="#d9aa46" opacity="0.27"/><rect x="202" y="82" width="30" height="126" rx="4" fill="#d9aa46" opacity="0.39"/><rect x="242" y="82" width="30" height="126" rx="4" fill="#d9aa46" opacity="0.15"/><rect x="282" y="82" width="30" height="126" rx="4" fill="#d9aa46" opacity="0.27"/><rect x="322" y="82" width="30" height="126" rx="4" fill="#d9aa46" opacity="0.39"/><circle cx="240" cy="145" r="34" fill="none" stroke="#b7375f" stroke-width="4"/>
  <text x="240.0" y="298" text-anchor="middle" fill="#f8d78b" font-family="Georgia, serif" font-size="20" font-weight="600">Backdrops</text>
  <text x="240.0" y="280" text-anchor="middle" fill="#9fb5ad" font-family="Arial, sans-serif" font-size="9" letter-spacing="2">PREVIEW · TLPS WEDDING OS</text>
</svg>