<svg xmlns="http://www.w3.org/2000/svg" viewBox="0 0 480 320" width="480" height="320" role="img" aria-label="Decor & Props">
  <defs>
    <linearGradient id="bg" x1="0" y1="0" x2="0" y2="1">
      <stop offset="0" stop-color="#0a1f1b"/><stop offset="1" stop-color="#02100e"/>
    </linearGradient>
    <radialGradient id="glow" cx="50%" cy="38%" r="60%">
      <stop offset="0" stop-color="#d9aa46" stop-opacity="0.22"/><stop offset="1" stop-color="#d9aa46" stop-opacity="0"/>
    </radialGradient>
    <linearGradient id="gold" x1="0" y1="0" x2="0" y2="1">
      <stop offset="0" stop-color="#f8d78b"/><stop offset="1" stop-color="#d9aa46"/>
    </linearGradient>
  </defs>
  <rect width="480" height="320" fill="url(#bg)"/>
  <rect width="480" height="320" fill="url(#glow)"/>
  <rect x="6" y="6" width="468" height="308" rx="10" fill="none" stroke="#d9aa46" stroke-opacity="0.35"/>
  <path d="M150 200 Q120 150 150 120 Q180 100 210 120 Q240 150 210 200 Z" fill="url(#gold)"/><ellipse cx="180" cy="118" rx="34" ry="10" fill="#b7375f"/><circle cx="180" cy="100" r="12" fill="#f8d78b"/><g><path d="M290 200 q15 14 30 0 z" fill="url(#gold)"/><circle cx="305" cy="190" r="5" fill="#ff9b3d"/></g><g><path d="M330 200 q15 14 30 0 z" fill="url(#gold)"/><circle cx="345" cy="190" r="5" fill="#ff9b3d"/></g><g><path d="M370 200 q15 14 30 0 z" fill="url(#gold)"/><circle cx="385" cy="190" r="5" fill="#ff9b3d"/></g>
  <text x="240.0" y="298" text-anchor="middle" fill="#f8d78b" font-family="Georgia, serif" font-size="20" font-weight="600">Decor & Props</text>
  <text x="240.0" y="280" text-anchor="middle" fill="#9fb5ad" font-family="Arial, sans-serif" font-size="9" letter-spacing="2">PREVIEW · TLPS WEDDING OS</text>
</svg>