<svg xmlns="http://www.w3.org/2000/svg" viewBox="0 0 480 320" width="480" height="320" role="img" aria-label="Lighting Design">
  <defs>
    <linearGradient id="bg" x1="0" y1="0" x2="0" y2="1">
      <stop offset="0" stop-color="#0a1f1b"/><stop offset="1" stop-color="#02100e"/>
    </linearGradient>
    <radialGradient id="glow" cx="50%" cy="38%" r="60%">
      <stop offset="0" stop-color="#d9aa46" stop-opacity="0.22"/><stop offset="1" stop-color="#d9aa46" stop-opacity="0"/>
    </radialGradient>
    <linearGradient id="gold" x1="0" y1="0" x2="0" y2="1">
      <stop offset="0" stop-color="#f8d78b"/><stop offset="1" stop-color="#d9aa46"/>
    </linearGradient>
  </defs>
  <rect width="480" height="320" fill="url(#bg)"/>
  <rect width="480" height="320" fill="url(#glow)"/>
  <rect x="6" y="6" width="468" height="308" rx="10" fill="none" stroke="#d9aa46" stroke-opacity="0.35"/>
  <line x1="240" y1="30" x2="240" y2="78" stroke="url(#gold)" stroke-width="4"/><ellipse cx="240" cy="92" rx="60" ry="18" fill="url(#gold)" opacity="0.9"/><line x1="200" y1="100" x2="200" y2="150" stroke="#f8d78b" stroke-width="2"/><line x1="216" y1="100" x2="216" y2="150" stroke="#f8d78b" stroke-width="2"/><line x1="232" y1="100" x2="232" y2="150" stroke="#f8d78b" stroke-width="2"/><line x1="248" y1="100" x2="248" y2="150" stroke="#f8d78b" stroke-width="2"/><line x1="264" y1="100" x2="264" y2="150" stroke="#f8d78b" stroke-width="2"/><line x1="280" y1="100" x2="280" y2="150" stroke="#f8d78b" stroke-width="2"/><circle cx="200" cy="155" r="4" fill="#ffd98a"/><circle cx="216" cy="155" r="4" fill="#ffd98a"/><circle cx="232" cy="155" r="4" fill="#ffd98a"/><circle cx="248" cy="155" r="4" fill="#ffd98a"/><circle cx="264" cy="155" r="4" fill="#ffd98a"/><circle cx="280" cy="155" r="4" fill="#ffd98a"/><polygon points="240,92 120,230 150,230" fill="#d9aa46" opacity="0.08"/><polygon points="240,92 240,230 270,230" fill="#d9aa46" opacity="0.08"/><polygon points="240,92 360,230 390,230" fill="#d9aa46" opacity="0.08"/>
  <text x="240.0" y="298" text-anchor="middle" fill="#f8d78b" font-family="Georgia, serif" font-size="20" font-weight="600">Lighting Design</text>
  <text x="240.0" y="280" text-anchor="middle" fill="#9fb5ad" font-family="Arial, sans-serif" font-size="9" letter-spacing="2">PREVIEW · TLPS WEDDING OS</text>
</svg>