<svg xmlns="http://www.w3.org/2000/svg" viewBox="0 0 480 320" width="480" height="320" role="img" aria-label="Royal Heritage Mandap">
  <defs>
    <linearGradient id="bg" x1="0" y1="0" x2="0" y2="1">
      <stop offset="0" stop-color="#0a1f1b"/><stop offset="1" stop-color="#02100e"/>
    </linearGradient>
    <radialGradient id="glow" cx="50%" cy="38%" r="60%">
      <stop offset="0" stop-color="#d9aa46" stop-opacity="0.22"/><stop offset="1" stop-color="#d9aa46" stop-opacity="0"/>
    </radialGradient>
    <linearGradient id="gold" x1="0" y1="0" x2="0" y2="1">
      <stop offset="0" stop-color="#f8d78b"/><stop offset="1" stop-color="#d9aa46"/>
    </linearGradient>
  </defs>
  <rect width="480" height="320" fill="url(#bg)"/>
  <rect width="480" height="320" fill="url(#glow)"/>
  <rect x="6" y="6" width="468" height="308" rx="10" fill="none" stroke="#d9aa46" stroke-opacity="0.35"/>
  <path d="M70 120 Q240 30 410 120" fill="none" stroke="url(#gold)" stroke-width="6"/><g fill="url(#gold)">
    <rect x="79.0" y="70" width="32.0" height="14" rx="3"/>
    <rect x="83.8" y="84" width="22.4" height="120"/>
    <rect x="79.0" y="204" width="32.0" height="16" rx="3"/>
    <circle cx="95" cy="64" r="11.2"/>
  </g><g fill="url(#gold)">
    <rect x="161.4" y="70" width="27.2" height="14" rx="3"/>
    <rect x="165.48" y="84" width="19.04" height="120"/>
    <rect x="161.4" y="204" width="27.2" height="16" rx="3"/>
    <circle cx="175" cy="64" r="9.52"/>
  </g><g fill="url(#gold)">
    <rect x="291.4" y="70" width="27.2" height="14" rx="3"/>
    <rect x="295.48" y="84" width="19.04" height="120"/>
    <rect x="291.4" y="204" width="27.2" height="16" rx="3"/>
    <circle cx="305" cy="64" r="9.52"/>
  </g><g fill="url(#gold)">
    <rect x="369.0" y="70" width="32.0" height="14" rx="3"/>
    <rect x="373.8" y="84" width="22.4" height="120"/>
    <rect x="369.0" y="204" width="32.0" height="16" rx="3"/>
    <circle cx="385" cy="64" r="11.2"/>
  </g><rect x="60" y="218" width="360" height="18" rx="5" fill="url(#gold)" opacity="0.9"/><ellipse cx="240" cy="232" rx="70" ry="10" fill="#b7375f" opacity="0.5"/><circle cx="70" cy="118" r="5" fill="#b7375f"/><circle cx="100" cy="103" r="5" fill="#b7375f"/><circle cx="130" cy="92" r="5" fill="#b7375f"/><circle cx="160" cy="83" r="5" fill="#b7375f"/><circle cx="190" cy="77" r="5" fill="#b7375f"/><circle cx="220" cy="74" r="5" fill="#b7375f"/><circle cx="250" cy="74" r="5" fill="#b7375f"/><circle cx="280" cy="77" r="5" fill="#b7375f"/><circle cx="310" cy="83" r="5" fill="#b7375f"/><circle cx="340" cy="92" r="5" fill="#b7375f"/><circle cx="370" cy="103" r="5" fill="#b7375f"/><circle cx="400" cy="118" r="5" fill="#b7375f"/>
  <text x="240.0" y="298" text-anchor="middle" fill="#f8d78b" font-family="Georgia, serif" font-size="20" font-weight="600">Royal Heritage Mandap</text>
  <text x="240.0" y="280" text-anchor="middle" fill="#9fb5ad" font-family="Arial, sans-serif" font-size="9" letter-spacing="2">PREVIEW · TLPS WEDDING OS</text>
</svg>