0
SECTION
2
HEADER
9
$ACADVER
1
AC1009
0
ENDSEC
0
SECTION
2
TABLES
0
TABLE
2
LAYER
70
6
0
LAYER
2
site
70
0
62
7
6
CONTINUOUS
0
LAYER
2
mandap
70
0
62
7
6
CONTINUOUS
0
LAYER
2
seating
70
0
62
7
6
CONTINUOUS
0
LAYER
2
lighting
70
0
62
7
6
CONTINUOUS
0
LAYER
2
decor
70
0
62
7
6
CONTINUOUS
0
LAYER
2
exports
70
0
62
7
6
CONTINUOUS
0
ENDTAB
0
ENDSEC
0
SECTION
2
ENTITIES
999
Lotus mandap (mandap)
0
LINE
8
mandap
10
-6.000
20
-6.000
30
0.000
11
6.000
21
-6.000
31
0.000
0
LINE
8
mandap
10
6.000
20
-6.000
30
0.000
11
6.000
21
6.000
31
0.000
0
LINE
8
mandap
10
6.000
20
6.000
30
0.000
11
-6.000
21
6.000
31
0.000
0
LINE
8
mandap
10
-6.000
20
6.000
30
0.000
11
-6.000
21
-6.000
31
0.000
0
LINE
8
mandap
10
-6.000
20
-6.000
30
0.500
11
6.000
21
-6.000
31
0.500
0
LINE
8
mandap
10
6.000
20
-6.000
30
0.500
11
6.000
21
6.000
31
0.500
0
LINE
8
mandap
10
6.000
20
6.000
30
0.500
11
-6.000
21
6.000
31
0.500
0
LINE
8
mandap
10
-6.000
20
6.000
30
0.500
11
-6.000
21
-6.000
31
0.500
0
LINE
8
mandap
10
-6.000
20
-6.000
30
0.000
11
-6.000
21
-6.000
31
0.500
0
LINE
8
mandap
10
6.000
20
-6.000
30
0.000
11
6.000
21
-6.000
31
0.500
0
LINE
8
mandap
10
6.000
20
6.000
30
0.000
11
6.000
21
6.000
31
0.500
0
LINE
8
mandap
10
-6.000
20
6.000
30
0.000
11
-6.000
21
6.000
31
0.500
999
Reception stage (stage)
0
LINE
8
site
10
-9.000
20
-25.500
30
0.000
11
9.000
21
-25.500
31
0.000
0
LINE
8
site
10
9.000
20
-25.500
30
0.000
11
9.000
21
-18.500
31
0.000
0
LINE
8
site
10
9.000
20
-18.500
30
0.000
11
-9.000
21
-18.500
31
0.000
0
LINE
8
site
10
-9.000
20
-18.500
30
0.000
11
-9.000
21
-25.500
31
0.000
0
LINE
8
site
10
-9.000
20
-25.500
30
1.200
11
9.000
21
-25.500
31
1.200
0
LINE
8
site
10
9.000
20
-25.500
30
1.200
11
9.000
21
-18.500
31
1.200
0
LINE
8
site
10
9.000
20
-18.500
30
1.200
11
-9.000
21
-18.500
31
1.200
0
LINE
8
site
10
-9.000
20
-18.500
30
1.200
11
-9.000
21
-25.500
31
1.200
0
LINE
8
site
10
-9.000
20
-25.500
30
0.000
11
-9.000
21
-25.500
31
1.200
0
LINE
8
site
10
9.000
20
-25.500
30
0.000
11
9.000
21
-25.500
31
1.200
0
LINE
8
site
10
9.000
20
-18.500
30
0.000
11
9.000
21
-18.500
31
1.200
0
LINE
8
site
10
-9.000
20
-18.500
30
0.000
11
-9.000
21
-18.500
31
1.200
999
Mandap pillar A (pillar)
0
LINE
8
mandap
10
-5.350
20
-5.350
30
0.000
11
-4.650
21
-5.350
31
0.000
0
LINE
8
mandap
10
-4.650
20
-5.350
30
0.000
11
-4.650
21
-4.650
31
0.000
0
LINE
8
mandap
10
-4.650
20
-4.650
30
0.000
11
-5.350
21
-4.650
31
0.000
0
LINE
8
mandap
10
-5.350
20
-4.650
30
0.000
11
-5.350
21
-5.350
31
0.000
0
LINE
8
mandap
10
-5.350
20
-5.350
30
6.000
11
-4.650
21
-5.350
31
6.000
0
LINE
8
mandap
10
-4.650
20
-5.350
30
6.000
11
-4.650
21
-4.650
31
6.000
0
LINE
8
mandap
10
-4.650
20
-4.650
30
6.000
11
-5.350
21
-4.650
31
6.000
0
LINE
8
mandap
10
-5.350
20
-4.650
30
6.000
11
-5.350
21
-5.350
31
6.000
0
LINE
8
mandap
10
-5.350
20
-5.350
30
0.000
11
-5.350
21
-5.350
31
6.000
0
LINE
8
mandap
10
-4.650
20
-5.350
30
0.000
11
-4.650
21
-5.350
31
6.000
0
LINE
8
mandap
10
-4.650
20
-4.650
30
0.000
11
-4.650
21
-4.650
31
6.000
0
LINE
8
mandap
10
-5.350
20
-4.650
30
0.000
11
-5.350
21
-4.650
31
6.000
999
Entry arch (arch)
0
LINE
8
decor
10
-4.500
20
27.500
30
0.000
11
4.500
21
27.500
31
0.000
0
LINE
8
decor
10
4.500
20
27.500
30
0.000
11
4.500
21
28.500
31
0.000
0
LINE
8
decor
10
4.500
20
28.500
30
0.000
11
-4.500
21
28.500
31
0.000
0
LINE
8
decor
10
-4.500
20
28.500
30
0.000
11
-4.500
21
27.500
31
0.000
0
LINE
8
decor
10
-4.500
20
27.500
30
6.000
11
4.500
21
27.500
31
6.000
0
LINE
8
decor
10
4.500
20
27.500
30
6.000
11
4.500
21
28.500
31
6.000
0
LINE
8
decor
10
4.500
20
28.500
30
6.000
11
-4.500
21
28.500
31
6.000
0
LINE
8
decor
10
-4.500
20
28.500
30
6.000
11
-4.500
21
27.500
31
6.000
0
LINE
8
decor
10
-4.500
20
27.500
30
0.000
11
-4.500
21
27.500
31
6.000
0
LINE
8
decor
10
4.500
20
27.500
30
0.000
11
4.500
21
27.500
31
6.000
0
LINE
8
decor
10
4.500
20
28.500
30
0.000
11
4.500
21
28.500
31
6.000
0
LINE
8
decor
10
-4.500
20
28.500
30
0.000
11
-4.500
21
28.500
31
6.000
999
Guest chair row (chair)
0
LINE
8
seating
10
-18.500
20
6.500
30
0.000
11
-17.500
21
6.500
31
0.000
0
LINE
8
seating
10
-17.500
20
6.500
30
0.000
11
-17.500
21
7.500
31
0.000
0
LINE
8
seating
10
-17.500
20
7.500
30
0.000
11
-18.500
21
7.500
31
0.000
0
LINE
8
seating
10
-18.500
20
7.500
30
0.000
11
-18.500
21
6.500
31
0.000
0
LINE
8
seating
10
-18.500
20
6.500
30
1.000
11
-17.500
21
6.500
31
1.000
0
LINE
8
seating
10
-17.500
20
6.500
30
1.000
11
-17.500
21
7.500
31
1.000
0
LINE
8
seating
10
-17.500
20
7.500
30
1.000
11
-18.500
21
7.500
31
1.000
0
LINE
8
seating
10
-18.500
20
7.500
30
1.000
11
-18.500
21
6.500
31
1.000
0
LINE
8
seating
10
-18.500
20
6.500
30
0.000
11
-18.500
21
6.500
31
1.000
0
LINE
8
seating
10
-17.500
20
6.500
30
0.000
11
-17.500
21
6.500
31
1.000
0
LINE
8
seating
10
-17.500
20
7.500
30
0.000
11
-17.500
21
7.500
31
1.000
0
LINE
8
seating
10
-18.500
20
7.500
30
0.000
11
-18.500
21
7.500
31
1.000
999
Couple sofa (sofa)
0
LINE
8
site
10
-2.500
20
-24.800
30
0.500
11
2.500
21
-24.800
31
0.500
0
LINE
8
site
10
2.500
20
-24.800
30
0.500
11
2.500
21
-23.200
31
0.500
0
LINE
8
site
10
2.500
20
-23.200
30
0.500
11
-2.500
21
-23.200
31
0.500
0
LINE
8
site
10
-2.500
20
-23.200
30
0.500
11
-2.500
21
-24.800
31
0.500
0
LINE
8
site
10
-2.500
20
-24.800
30
1.900
11
2.500
21
-24.800
31
1.900
0
LINE
8
site
10
2.500
20
-24.800
30
1.900
11
2.500
21
-23.200
31
1.900
0
LINE
8
site
10
2.500
20
-23.200
30
1.900
11
-2.500
21
-23.200
31
1.900
0
LINE
8
site
10
-2.500
20
-23.200
30
1.900
11
-2.500
21
-24.800
31
1.900
0
LINE
8
site
10
-2.500
20
-24.800
30
0.500
11
-2.500
21
-24.800
31
1.900
0
LINE
8
site
10
2.500
20
-24.800
30
0.500
11
2.500
21
-24.800
31
1.900
0
LINE
8
site
10
2.500
20
-23.200
30
0.500
11
2.500
21
-23.200
31
1.900
0
LINE
8
site
10
-2.500
20
-23.200
30
0.500
11
-2.500
21
-23.200
31
1.900
999
Family table (table)
0
LINE
8
seating
10
16.600
20
5.600
30
0.050
11
19.400
21
5.600
31
0.050
0
LINE
8
seating
10
19.400
20
5.600
30
0.050
11
19.400
21
8.400
31
0.050
0
LINE
8
seating
10
19.400
20
8.400
30
0.050
11
16.600
21
8.400
31
0.050
0
LINE
8
seating
10
16.600
20
8.400
30
0.050
11
16.600
21
5.600
31
0.050
0
LINE
8
seating
10
16.600
20
5.600
30
1.150
11
19.400
21
5.600
31
1.150
0
LINE
8
seating
10
19.400
20
5.600
30
1.150
11
19.400
21
8.400
31
1.150
0
LINE
8
seating
10
19.400
20
8.400
30
1.150
11
16.600
21
8.400
31
1.150
0
LINE
8
seating
10
16.600
20
8.400
30
1.150
11
16.600
21
5.600
31
1.150
0
LINE
8
seating
10
16.600
20
5.600
30
0.050
11
16.600
21
5.600
31
1.150
0
LINE
8
seating
10
19.400
20
5.600
30
0.050
11
19.400
21
5.600
31
1.150
0
LINE
8
seating
10
19.400
20
8.400
30
0.050
11
19.400
21
8.400
31
1.150
0
LINE
8
seating
10
16.600
20
8.400
30
0.050
11
16.600
21
8.400
31
1.150
999
North gate (gate)
0
LINE
8
site
10
-6.000
20
32.500
30
0.000
11
6.000
21
32.500
31
0.000
0
LINE
8
site
10
6.000
20
32.500
30
0.000
11
6.000
21
33.500
31
0.000
0
LINE
8
site
10
6.000
20
33.500
30
0.000
11
-6.000
21
33.500
31
0.000
0
LINE
8
site
10
-6.000
20
33.500
30
0.000
11
-6.000
21
32.500
31
0.000
0
LINE
8
site
10
-6.000
20
32.500
30
6.000
11
6.000
21
32.500
31
6.000
0
LINE
8
site
10
6.000
20
32.500
30
6.000
11
6.000
21
33.500
31
6.000
0
LINE
8
site
10
6.000
20
33.500
30
6.000
11
-6.000
21
33.500
31
6.000
0
LINE
8
site
10
-6.000
20
33.500
30
6.000
11
-6.000
21
32.500
31
6.000
0
LINE
8
site
10
-6.000
20
32.500
30
0.000
11
-6.000
21
32.500
31
6.000
0
LINE
8
site
10
6.000
20
32.500
30
0.000
11
6.000
21
32.500
31
6.000
0
LINE
8
site
10
6.000
20
33.500
30
0.000
11
6.000
21
33.500
31
6.000
0
LINE
8
site
10
-6.000
20
33.500
30
0.000
11
-6.000
21
33.500
31
6.000
999
Canopy garland (floral-garland)
0
LINE
8
decor
10
-4.000
20
-4.000
30
6.400
11
4.000
21
-4.000
31
6.400
0
LINE
8
decor
10
4.000
20
-4.000
30
6.400
11
4.000
21
4.000
31
6.400
0
LINE
8
decor
10
4.000
20
4.000
30
6.400
11
-4.000
21
4.000
31
6.400
0
LINE
8
decor
10
-4.000
20
4.000
30
6.400
11
-4.000
21
-4.000
31
6.400
0
LINE
8
decor
10
-4.000
20
-4.000
30
6.800
11
4.000
21
-4.000
31
6.800
0
LINE
8
decor
10
4.000
20
-4.000
30
6.800
11
4.000
21
4.000
31
6.800
0
LINE
8
decor
10
4.000
20
4.000
30
6.800
11
-4.000
21
4.000
31
6.800
0
LINE
8
decor
10
-4.000
20
4.000
30
6.800
11
-4.000
21
-4.000
31
6.800
0
LINE
8
decor
10
-4.000
20
-4.000
30
6.400
11
-4.000
21
-4.000
31
6.800
0
LINE
8
decor
10
4.000
20
-4.000
30
6.400
11
4.000
21
-4.000
31
6.800
0
LINE
8
decor
10
4.000
20
4.000
30
6.400
11
4.000
21
4.000
31
6.800
0
LINE
8
decor
10
-4.000
20
4.000
30
6.400
11
-4.000
21
4.000
31
6.800
999
Kalash pair (kalash)
0
LINE
8
decor
10
-2.900
20
2.100
30
0.200
11
-2.100
21
2.100
31
0.200
0
LINE
8
decor
10
-2.100
20
2.100
30
0.200
11
-2.100
21
2.900
31
0.200
0
LINE
8
decor
10
-2.100
20
2.900
30
0.200
11
-2.900
21
2.900
31
0.200
0
LINE
8
decor
10
-2.900
20
2.900
30
0.200
11
-2.900
21
2.100
31
0.200
0
LINE
8
decor
10
-2.900
20
2.100
30
1.400
11
-2.100
21
2.100
31
1.400
0
LINE
8
decor
10
-2.100
20
2.100
30
1.400
11
-2.100
21
2.900
31
1.400
0
LINE
8
decor
10
-2.100
20
2.900
30
1.400
11
-2.900
21
2.900
31
1.400
0
LINE
8
decor
10
-2.900
20
2.900
30
1.400
11
-2.900
21
2.100
31
1.400
0
LINE
8
decor
10
-2.900
20
2.100
30
0.200
11
-2.900
21
2.100
31
1.400
0
LINE
8
decor
10
-2.100
20
2.100
30
0.200
11
-2.100
21
2.100
31
1.400
0
LINE
8
decor
10
-2.100
20
2.900
30
0.200
11
-2.100
21
2.900
31
1.400
0
LINE
8
decor
10
-2.900
20
2.900
30
0.200
11
-2.900
21
2.900
31
1.400
999
Diya ring (diya)
0
LINE
8
decor
10
2.600
20
2.600
30
0.100
11
3.000
21
2.600
31
0.100
0
LINE
8
decor
10
3.000
20
2.600
30
0.100
11
3.000
21
3.000
31
0.100
0
LINE
8
decor
10
3.000
20
3.000
30
0.100
11
2.600
21
3.000
31
0.100
0
LINE
8
decor
10
2.600
20
3.000
30
0.100
11
2.600
21
2.600
31
0.100
0
LINE
8
decor
10
2.600
20
2.600
30
0.300
11
3.000
21
2.600
31
0.300
0
LINE
8
decor
10
3.000
20
2.600
30
0.300
11
3.000
21
3.000
31
0.300
0
LINE
8
decor
10
3.000
20
3.000
30
0.300
11
2.600
21
3.000
31
0.300
0
LINE
8
decor
10
2.600
20
3.000
30
0.300
11
2.600
21
2.600
31
0.300
0
LINE
8
decor
10
2.600
20
2.600
30
0.100
11
2.600
21
2.600
31
0.300
0
LINE
8
decor
10
3.000
20
2.600
30
0.100
11
3.000
21
2.600
31
0.300
0
LINE
8
decor
10
3.000
20
3.000
30
0.100
11
3.000
21
3.000
31
0.300
0
LINE
8
decor
10
2.600
20
3.000
30
0.100
11
2.600
21
3.000
31
0.300
999
Mandap chandelier (chandelier)
0
LINE
8
lighting
10
-1.200
20
-1.200
30
5.400
11
1.200
21
-1.200
31
5.400
0
LINE
8
lighting
10
1.200
20
-1.200
30
5.400
11
1.200
21
1.200
31
5.400
0
LINE
8
lighting
10
1.200
20
1.200
30
5.400
11
-1.200
21
1.200
31
5.400
0
LINE
8
lighting
10
-1.200
20
1.200
30
5.400
11
-1.200
21
-1.200
31
5.400
0
LINE
8
lighting
10
-1.200
20
-1.200
30
6.600
11
1.200
21
-1.200
31
6.600
0
LINE
8
lighting
10
1.200
20
-1.200
30
6.600
11
1.200
21
1.200
31
6.600
0
LINE
8
lighting
10
1.200
20
1.200
30
6.600
11
-1.200
21
1.200
31
6.600
0
LINE
8
lighting
10
-1.200
20
1.200
30
6.600
11
-1.200
21
-1.200
31
6.600
0
LINE
8
lighting
10
-1.200
20
-1.200
30
5.400
11
-1.200
21
-1.200
31
6.600
0
LINE
8
lighting
10
1.200
20
-1.200
30
5.400
11
1.200
21
-1.200
31
6.600
0
LINE
8
lighting
10
1.200
20
1.200
30
5.400
11
1.200
21
1.200
31
6.600
0
LINE
8
lighting
10
-1.200
20
1.200
30
5.400
11
-1.200
21
1.200
31
6.600
999
Lighting truss (truss)
0
LINE
8
lighting
10
-10.000
20
-16.250
30
4.750
11
10.000
21
-16.250
31
4.750
0
LINE
8
lighting
10
10.000
20
-16.250
30
4.750
11
10.000
21
-15.750
31
4.750
0
LINE
8
lighting
10
10.000
20
-15.750
30
4.750
11
-10.000
21
-15.750
31
4.750
0
LINE
8
lighting
10
-10.000
20
-15.750
30
4.750
11
-10.000
21
-16.250
31
4.750
0
LINE
8
lighting
10
-10.000
20
-16.250
30
5.250
11
10.000
21
-16.250
31
5.250
0
LINE
8
lighting
10
10.000
20
-16.250
30
5.250
11
10.000
21
-15.750
31
5.250
0
LINE
8
lighting
10
10.000
20
-15.750
30
5.250
11
-10.000
21
-15.750
31
5.250
0
LINE
8
lighting
10
-10.000
20
-15.750
30
5.250
11
-10.000
21
-16.250
31
5.250
0
LINE
8
lighting
10
-10.000
20
-16.250
30
4.750
11
-10.000
21
-16.250
31
5.250
0
LINE
8
lighting
10
10.000
20
-16.250
30
4.750
11
10.000
21
-16.250
31
5.250
0
LINE
8
lighting
10
10.000
20
-15.750
30
4.750
11
10.000
21
-15.750
31
5.250
0
LINE
8
lighting
10
-10.000
20
-15.750
30
4.750
11
-10.000
21
-15.750
31
5.250
999
LED wall (led-wall)
0
LINE
8
lighting
10
-7.000
20
-26.175
30
0.500
11
7.000
21
-26.175
31
0.500
0
LINE
8
lighting
10
7.000
20
-26.175
30
0.500
11
7.000
21
-25.825
31
0.500
0
LINE
8
lighting
10
7.000
20
-25.825
30
0.500
11
-7.000
21
-25.825
31
0.500
0
LINE
8
lighting
10
-7.000
20
-25.825
30
0.500
11
-7.000
21
-26.175
31
0.500
0
LINE
8
lighting
10
-7.000
20
-26.175
30
5.500
11
7.000
21
-26.175
31
5.500
0
LINE
8
lighting
10
7.000
20
-26.175
30
5.500
11
7.000
21
-25.825
31
5.500
0
LINE
8
lighting
10
7.000
20
-25.825
30
5.500
11
-7.000
21
-25.825
31
5.500
0
LINE
8
lighting
10
-7.000
20
-25.825
30
5.500
11
-7.000
21
-26.175
31
5.500
0
LINE
8
lighting
10
-7.000
20
-26.175
30
0.500
11
-7.000
21
-26.175
31
5.500
0
LINE
8
lighting
10
7.000
20
-26.175
30
0.500
11
7.000
21
-26.175
31
5.500
0
LINE
8
lighting
10
7.000
20
-25.825
30
0.500
11
7.000
21
-25.825
31
5.500
0
LINE
8
lighting
10
-7.000
20
-25.825
30
0.500
11
-7.000
21
-25.825
31
5.500
999
Reflecting pool (water-pool)
0
LINE
8
site
10
-6.000
20
12.500
30
0.020
11
6.000
21
12.500
31
0.020
0
LINE
8
site
10
6.000
20
12.500
30
0.020
11
6.000
21
15.500
31
0.020
0
LINE
8
site
10
6.000
20
15.500
30
0.020
11
-6.000
21
15.500
31
0.020
0
LINE
8
site
10
-6.000
20
15.500
30
0.020
11
-6.000
21
12.500
31
0.020
0
LINE
8
site
10
-6.000
20
12.500
30
0.140
11
6.000
21
12.500
31
0.140
0
LINE
8
site
10
6.000
20
12.500
30
0.140
11
6.000
21
15.500
31
0.140
0
LINE
8
site
10
6.000
20
15.500
30
0.140
11
-6.000
21
15.500
31
0.140
0
LINE
8
site
10
-6.000
20
15.500
30
0.140
11
-6.000
21
12.500
31
0.140
0
LINE
8
site
10
-6.000
20
12.500
30
0.020
11
-6.000
21
12.500
31
0.140
0
LINE
8
site
10
6.000
20
12.500
30
0.020
11
6.000
21
12.500
31
0.140
0
LINE
8
site
10
6.000
20
15.500
30
0.020
11
6.000
21
15.500
31
0.140
0
LINE
8
site
10
-6.000
20
15.500
30
0.020
11
-6.000
21
15.500
31
0.140
999
Existing tree (tree)
0
LINE
8
site
10
-30.000
20
-10.000
30
0.000
11
-26.000
21
-10.000
31
0.000
0
LINE
8
site
10
-26.000
20
-10.000
30
0.000
11
-26.000
21
-6.000
31
0.000
0
LINE
8
site
10
-26.000
20
-6.000
30
0.000
11
-30.000
21
-6.000
31
0.000
0
LINE
8
site
10
-30.000
20
-6.000
30
0.000
11
-30.000
21
-10.000
31
0.000
0
LINE
8
site
10
-30.000
20
-10.000
30
8.000
11
-26.000
21
-10.000
31
8.000
0
LINE
8
site
10
-26.000
20
-10.000
30
8.000
11
-26.000
21
-6.000
31
8.000
0
LINE
8
site
10
-26.000
20
-6.000
30
8.000
11
-30.000
21
-6.000
31
8.000
0
LINE
8
site
10
-30.000
20
-6.000
30
8.000
11
-30.000
21
-10.000
31
8.000
0
LINE
8
site
10
-30.000
20
-10.000
30
0.000
11
-30.000
21
-10.000
31
8.000
0
LINE
8
site
10
-26.000
20
-10.000
30
0.000
11
-26.000
21
-10.000
31
8.000
0
LINE
8
site
10
-26.000
20
-6.000
30
0.000
11
-26.000
21
-6.000
31
8.000
0
LINE
8
site
10
-30.000
20
-6.000
30
0.000
11
-30.000
21
-6.000
31
8.000
999
Parking block A (parking-block)
0
LINE
8
site
10
26.000
20
14.000
30
0.000
11
38.000
21
14.000
31
0.000
0
LINE
8
site
10
38.000
20
14.000
30
0.000
11
38.000
21
22.000
31
0.000
0
LINE
8
site
10
38.000
20
22.000
30
0.000
11
26.000
21
22.000
31
0.000
0
LINE
8
site
10
26.000
20
22.000
30
0.000
11
26.000
21
14.000
31
0.000
0
LINE
8
site
10
26.000
20
14.000
30
0.200
11
38.000
21
14.000
31
0.200
0
LINE
8
site
10
38.000
20
14.000
30
0.200
11
38.000
21
22.000
31
0.200
0
LINE
8
site
10
38.000
20
22.000
30
0.200
11
26.000
21
22.000
31
0.200
0
LINE
8
site
10
26.000
20
22.000
30
0.200
11
26.000
21
14.000
31
0.200
0
LINE
8
site
10
26.000
20
14.000
30
0.000
11
26.000
21
14.000
31
0.200
0
LINE
8
site
10
38.000
20
14.000
30
0.000
11
38.000
21
14.000
31
0.200
0
LINE
8
site
10
38.000
20
22.000
30
0.000
11
38.000
21
22.000
31
0.200
0
LINE
8
site
10
26.000
20
22.000
30
0.000
11
26.000
21
22.000
31
0.200
999
Drone path marker (drone-path-marker)
0
LINE
8
site
10
-32.500
20
23.500
30
5.500
11
-31.500
21
23.500
31
5.500
0
LINE
8
site
10
-31.500
20
23.500
30
5.500
11
-31.500
21
24.500
31
5.500
0
LINE
8
site
10
-31.500
20
24.500
30
5.500
11
-32.500
21
24.500
31
5.500
0
LINE
8
site
10
-32.500
20
24.500
30
5.500
11
-32.500
21
23.500
31
5.500
0
LINE
8
site
10
-32.500
20
23.500
30
6.500
11
-31.500
21
23.500
31
6.500
0
LINE
8
site
10
-31.500
20
23.500
30
6.500
11
-31.500
21
24.500
31
6.500
0
LINE
8
site
10
-31.500
20
24.500
30
6.500
11
-32.500
21
24.500
31
6.500
0
LINE
8
site
10
-32.500
20
24.500
30
6.500
11
-32.500
21
23.500
31
6.500
0
LINE
8
site
10
-32.500
20
23.500
30
5.500
11
-32.500
21
23.500
31
6.500
0
LINE
8
site
10
-31.500
20
23.500
30
5.500
11
-31.500
21
23.500
31
6.500
0
LINE
8
site
10
-31.500
20
24.500
30
5.500
11
-31.500
21
24.500
31
6.500
0
LINE
8
site
10
-32.500
20
24.500
30
5.500
11
-32.500
21
24.500
31
6.500
0
ENDSEC
0
EOF
